<svg width="25" height="24" viewBox="0 0 25 24" fill="none" xmlns="http://www.w3.org/2000/svg">
<g clip-path="url(#clip0_49_23)">
<path d="M9.83521 8V6C9.83521 5.46957 10.0459 4.96086 10.421 4.58579C10.7961 4.21071 11.3048 4 11.8352 4H18.8352C19.3656 4 19.8743 4.21071 20.2494 4.58579C20.6245 4.96086 20.8352 5.46957 20.8352 6V18C20.8352 18.5304 20.6245 19.0391 20.2494 19.4142C19.8743 19.7893 19.3656 20 18.8352 20H11.8352C11.3048 20 10.7961 19.7893 10.421 19.4142C10.0459 19.0391 9.83521 18.5304 9.83521 18V16" stroke="#E32124" stroke-width="1.5" stroke-linecap="round" stroke-linejoin="round"/>
<path d="M3.83521 12H16.8352L13.8352 9" stroke="#E32124" stroke-width="1.5" stroke-linecap="round" stroke-linejoin="round"/>
<path d="M13.8352 15L16.8352 12" stroke="#E32124" stroke-width="1.5" stroke-linecap="round" stroke-linejoin="round"/>
</g>
<defs>
<clipPath id="clip0_49_23">
<rect width="24" height="24" fill="white" transform="translate(0.835205)"/>
</clipPath>
</defs>
</svg>
