<svg width="20" height="20" viewBox="0 0 20 20" fill="none" xmlns="http://www.w3.org/2000/svg">
<g clip-path="url(#clip0_20_92)">
<path d="M2.5 3.33333C2.5 3.11232 2.5878 2.90036 2.74408 2.74408C2.90036 2.5878 3.11232 2.5 3.33333 2.5H5C5.22101 2.5 5.43298 2.5878 5.58926 2.74408C5.74554 2.90036 5.83333 3.11232 5.83333 3.33333V5C5.83333 5.22101 5.74554 5.43298 5.58926 5.58926C5.43298 5.74554 5.22101 5.83333 5 5.83333H3.33333C3.11232 5.83333 2.90036 5.74554 2.74408 5.58926C2.5878 5.43298 2.5 5.22101 2.5 5V3.33333Z" stroke="#666666" stroke-width="2" stroke-linecap="round" stroke-linejoin="round"/>
<path d="M14.1667 3.33333C14.1667 3.11232 14.2545 2.90036 14.4107 2.74408C14.567 2.5878 14.779 2.5 15 2.5H16.6667C16.8877 2.5 17.0996 2.5878 17.2559 2.74408C17.4122 2.90036 17.5 3.11232 17.5 3.33333V5C17.5 5.22101 17.4122 5.43298 17.2559 5.58926C17.0996 5.74554 16.8877 5.83333 16.6667 5.83333H15C14.779 5.83333 14.567 5.74554 14.4107 5.58926C14.2545 5.43298 14.1667 5.22101 14.1667 5V3.33333Z" stroke="#666666" stroke-width="2" stroke-linecap="round" stroke-linejoin="round"/>
<path d="M14.1667 15.0001C14.1667 14.7791 14.2545 14.5671 14.4107 14.4108C14.567 14.2545 14.779 14.1667 15 14.1667H16.6667C16.8877 14.1667 17.0996 14.2545 17.2559 14.4108C17.4122 14.5671 17.5 14.7791 17.5 15.0001V16.6667C17.5 16.8878 17.4122 17.0997 17.2559 17.256C17.0996 17.4123 16.8877 17.5001 16.6667 17.5001H15C14.779 17.5001 14.567 17.4123 14.4107 17.256C14.2545 17.0997 14.1667 16.8878 14.1667 16.6667V15.0001Z" stroke="#666666" stroke-width="2" stroke-linecap="round" stroke-linejoin="round"/>
<path d="M2.5 15.0001C2.5 14.7791 2.5878 14.5671 2.74408 14.4108C2.90036 14.2545 3.11232 14.1667 3.33333 14.1667H5C5.22101 14.1667 5.43298 14.2545 5.58926 14.4108C5.74554 14.5671 5.83333 14.7791 5.83333 15.0001V16.6667C5.83333 16.8878 5.74554 17.0997 5.58926 17.256C5.43298 17.4123 5.22101 17.5001 5 17.5001H3.33333C3.11232 17.5001 2.90036 17.4123 2.74408 17.256C2.5878 17.0997 2.5 16.8878 2.5 16.6667V15.0001Z" stroke="#666666" stroke-width="2" stroke-linecap="round" stroke-linejoin="round"/>
<path d="M4.16667 5.83325V14.1666" stroke="#666666" stroke-width="2" stroke-linecap="round" stroke-linejoin="round"/>
<path d="M15.8333 5.83325V14.1666" stroke="#666666" stroke-width="2" stroke-linecap="round" stroke-linejoin="round"/>
<path d="M5.83333 4.16675H14.1667" stroke="#666666" stroke-width="2" stroke-linecap="round" stroke-linejoin="round"/>
<path d="M5.83333 15.8333H14.1667" stroke="#666666" stroke-width="2" stroke-linecap="round" stroke-linejoin="round"/>
</g>
<defs>
<clipPath id="clip0_20_92">
<rect width="20" height="20" fill="white"/>
</clipPath>
</defs>
</svg>
